PathFileType	4	(X/Y/Z)	SUBJ59_2_walk_RCNL2025.trc
DataRate	CameraRate	NumFrames	NumMarkers	Units	OrigDataRate	OrigDataStartFrame	OrigNumFrames
100	100	6	25	mm	100	82	327
Frame#	Time	R_Shoulder			L_Shoulder			C7			J_Notch			R_Elbow			L_Elbow			R_Wrist			L_Wrist			R_Asis			L_Asis			Sacral			Thoracic			Sternum			R_Thigh_Lateral			R_Knee_Lateral			R_Shank_Lateral			R_Ankle_Lateral			R_Heel			R_Toe			L_Thigh_Lateral			L_Knee_Lateral			L_Shank_Lateral			L_Ankle_Lateral			L_Heel			L_Toe		
		X1	Y1	Z1	X2	Y2	Z2	X3	Y3	Z3	X4	Y4	Z4	X5	Y5	Z5	X6	Y6	Z6	X7	Y7	Z7	X8	Y8	Z8	X9	Y9	Z9	X10	Y10	Z10	X11	Y11	Z11	X12	Y12	Z12	X13	Y13	Z13	X14	Y14	Z14	X15	Y15	Z15	X16	Y16	Z16	X17	Y17	Z17	X18	Y18	Z18	X19	Y19	Z19	X20	Y20	Z20	X21	Y21	Z21	X22	Y22	Z22	X23	Y23	Z23	X24	Y24	Z24	X25	Y25	Z25
82	0.81000000	-1292.142578	1422.940063	402.708618	-1319.374268	1444.411499	1.865853	-1397.960938	1521.130859	207.334290	-1236.385864	1421.252075	198.241959	-1297.033569	1117.398560	514.921265	-1399.766968	1108.126099	-86.074554	-1168.979370	869.070953	514.333740	-1401.620789	841.190796	-79.696985	-1259.107544	958.253235	335.345032	-1238.869751	959.136658	110.762238	-1465.730347	986.473877	197.281631	-1468.261230	1308.680908	195.091568	-1186.913452	1225.369995	198.149170	-1425.590820	582.867432	410.709961	-1467.175903	492.796051	354.721497	-1562.789551	316.454742	426.196228	-1703.861572	108.960678	314.608490	-1744.292114	115.604576	270.095215	-1564.937012	33.916004	270.878754	-1205.450073	590.216675	20.632824	-1165.701904	491.734863	78.286545	-1131.951904	299.843689	20.196203	-1103.972046	73.090599	95.433357	-1148.669067	48.150230	148.889664	-944.686646	46.947517	138.793335
83	0.82000000	-1279.296997	1424.723511	400.341309	-1306.710693	1444.912354	-0.366085	-1385.204956	1522.466309	204.760574	-1223.661377	1422.597900	195.900238	-1286.803833	1119.047974	512.865112	-1386.329102	1108.299561	-87.581573	-1162.172180	868.842987	513.363998	-1387.189331	841.376831	-80.764208	-1246.569336	959.203918	334.195099	-1226.873779	960.959167	109.908615	-1453.402344	988.049805	196.444733	-1455.568237	1309.929932	193.448776	-1174.146606	1226.698975	196.367462	-1410.250000	582.889587	410.910217	-1451.258789	492.620392	355.160858	-1552.557495	319.876099	426.922699	-1698.000610	115.685570	315.157288	-1737.251953	124.336174	270.329987	-1563.992310	33.554886	270.599670	-1195.385498	591.516235	19.739489	-1155.409180	492.729279	77.525330	-1122.399170	300.515625	19.703554	-1102.030640	72.948326	95.339912	-1147.714111	48.941868	148.507538	-943.109070	43.929180	138.684494
84	0.83000000	-1266.517090	1426.814941	398.011658	-1293.971924	1445.729370	-2.474406	-1372.535767	1524.032104	202.261490	-1211.010254	1424.218018	193.665527	-1276.724243	1120.996582	510.731964	-1372.627930	1108.793701	-89.109207	-1155.865051	868.817383	512.318192	-1372.213745	841.886200	-81.829321	-1234.071777	960.452820	332.903381	-1214.930786	963.063599	108.858742	-1441.122681	989.906494	195.641693	-1442.926880	1311.352295	191.811600	-1161.450562	1228.288574	194.691132	-1393.679932	582.789368	411.270477	-1433.998657	492.315399	355.790680	-1541.230713	323.646942	427.769287	-1690.812866	122.967178	315.698181	-1728.643311	133.792603	270.516418	-1562.771240	33.231331	270.282990	-1186.084106	592.694336	18.777195	-1145.835449	493.660156	76.749802	-1113.928589	300.976868	19.153538	-1100.523682	72.898140	95.279877	-1146.984009	49.584442	148.193207	-941.945862	41.750847	138.624680
85	0.84000000	-1253.869507	1429.157471	395.751648	-1281.172241	1446.821777	-4.430174	-1359.994873	1525.770264	199.853104	-1198.473145	1426.054688	191.570953	-1266.783936	1123.191650	508.537964	-1358.669678	1109.570312	-90.660034	-1150.011475	868.980438	511.198059	-1356.697754	842.685364	-82.894957	-1221.686035	961.919495	331.455505	-1203.013306	965.373413	107.566269	-1428.930054	991.979370	194.846375	-1430.367798	1312.893555	190.182831	-1148.857300	1230.080322	193.151398	-1375.920898	582.538147	411.771179	-1415.443359	491.835602	356.579773	-1528.649902	327.623688	428.734894	-1682.138672	130.700073	316.281250	-1718.367798	143.837128	270.729645	-1561.092041	33.079151	269.979156	-1177.348267	593.791870	17.795725	-1137.049316	494.482330	75.971725	-1106.843262	301.189240	18.575497	-1099.372070	72.905746	95.257973	-1146.446045	50.076298	147.951324	-941.122925	40.240803	138.657501
86	0.85000000	-1241.419067	1431.682007	393.597321	-1268.328735	1448.132812	-6.212212	-1347.614014	1527.619263	197.549133	-1186.083252	1428.043213	189.642670	-1256.981323	1125.560425	506.306396	-1344.472900	1110.578979	-92.239250	-1144.554688	869.301971	510.007858	-1340.656189	843.723999	-83.962214	-1209.459717	963.512207	329.853333	-1191.117432	967.803223	106.024658	-1416.862183	994.193665	194.037186	-1417.918335	1314.501099	188.564590	-1136.392334	1232.006958	191.772903	-1357.088379	582.130005	412.364777	-1395.698364	491.152954	357.470703	-1514.645996	331.591431	429.801788	-1671.878784	138.746338	316.947021	-1706.418945	154.282059	271.044189	-1558.681519	33.290630	269.751282	-1169.045532	594.827271	16.825857	-1129.077881	495.172821	75.192078	-1101.202026	301.166870	17.998362	-1098.506348	72.945274	95.267044	-1146.065430	50.434242	147.776184	-940.567200	39.226742	138.792694
87	0.86000000	-1229.221558	1434.312744	391.584656	-1255.461792	1449.596191	-7.807898	-1335.416870	1529.518677	195.362152	-1173.863037	1430.115967	187.897568	-1247.325562	1128.017700	504.068634	-1330.059814	1111.757080	-93.850845	-1139.431824	869.737762	508.753265	-1324.112549	844.941101	-85.029678	-1197.417603	965.140808	328.118011	-1179.267212	970.265747	104.269180	-1404.953613	996.472046	193.201752	-1405.603516	1316.132446	186.959824	-1124.078369	1234.000122	190.570114	-1337.370361	581.589355	412.983887	-1374.919922	490.274445	358.390289	-1499.060913	335.293762	430.937134	-1660.012207	146.956757	317.711182	-1692.891235	164.901871	271.515137	-1555.163696	34.101410	269.663940	-1161.103882	595.802917	15.875912	-1121.897095	495.724792	74.406883	-1096.883789	300.950653	17.441505	-1097.869629	72.996895	95.294846	-1145.807251	50.683945	147.657837	-940.211975	38.560070	139.011932
